<svg id="visual" viewBox="0 0 1920 500" width="1920" height="500" xmlns="http://www.w3.org/2000/svg" xmlns:xlink="http://www.w3.org/1999/xlink" version="1.1"><path d="M0 122L80 131.8C160 141.7 320 161.3 480 172.8C640 184.3 800 187.7 960 184.3C1120 181 1280 171 1440 154.2C1600 137.3 1760 113.7 1840 101.8L1920 90L1920 501L1840 501C1760 501 1600 501 1440 501C1280 501 1120 501 960 501C800 501 640 501 480 501C320 501 160 501 80 501L0 501Z" fill="#1b9aaa"></path><path d="M0 342L80 321.7C160 301.3 320 260.7 480 239.7C640 218.7 800 217.3 960 219.2C1120 221 1280 226 1440 230.3C1600 234.7 1760 238.3 1840 240.2L1920 242L1920 501L1840 501C1760 501 1600 501 1440 501C1280 501 1120 501 960 501C800 501 640 501 480 501C320 501 160 501 80 501L0 501Z" fill="#00b9b0"></path><path d="M0 403L80 388.2C160 373.3 320 343.7 480 351C640 358.3 800 402.7 960 404.5C1120 406.3 1280 365.7 1440 358.2C1600 350.7 1760 376.3 1840 389.2L1920 402L1920 501L1840 501C1760 501 1600 501 1440 501C1280 501 1120 501 960 501C800 501 640 501 480 501C320 501 160 501 80 501L0 501Z" fill="#06d6a0"></path></svg>